<region> key=$hh_ped
<region> key=$hh_spl
<region> key=$hh_bel   locc$FC=$LOFC hicc$FC=127
<region> key=$hh_grb
<region> key=$hh_ord_l locc$FC=$LOFC hicc$FC=127
<region> key=$hh_ord_r locc$FC=$LOFC hicc$FC=127
<region> key=$hh_rim   locc$FC=$LOFC hicc$FC=127
<region> key=$hh_top_l locc$FC=$LOFC hicc$FC=127
<region> key=$hh_top_r locc$FC=$LOFC hicc$FC=127
<region> key=$hh_sws   locc$FC=$LOFC hicc$FC=127
<region> key=$hh_opn   locc$FC=$LOFC hicc$FC=127
